<svg width="44" height="37" viewBox="0 0 44 37" fill="none" xmlns="http://www.w3.org/2000/svg">
<path d="M18.6862 1.08722C18.67 1.09949 18.6494 1.11538 18.6241 1.13554C18.5157 1.22173 18.3593 1.35454 18.1497 1.54046C17.7324 1.91041 17.1393 2.45933 16.3638 3.19449C14.8147 4.66304 12.5622 6.85172 9.58298 9.78577L9.58232 9.78641L1.42405 17.8064L9.40384 25.7034C12.1421 28.4116 14.3695 30.5901 15.9596 32.1145C16.7553 32.8774 17.387 33.4722 17.8415 33.8864C18.0695 34.0942 18.2466 34.2507 18.3744 34.3583C18.4516 34.4232 18.4936 34.4554 18.5089 34.4673C19.3391 34.8551 20.3311 34.5441 20.791 33.7459C20.8017 33.7179 20.8486 33.5685 20.888 33.0438C20.9326 32.4497 20.9625 31.5029 20.9927 29.9177L20.9927 29.9171L21.0679 26.0936L21.0877 25.09L22.0913 25.1136L23.3646 25.1436C23.3657 25.1436 23.3667 25.1436 23.3677 25.1436C25.1662 25.1753 28.2584 25.5591 29.8991 25.9529C35.334 27.2122 39.4385 29.7061 42.9214 33.8822C42.861 31.818 42.7572 30.757 42.5409 29.7567L42.5402 29.7534C41.5686 25.1856 39.5309 21.276 36.4439 18.0444C34.4425 15.9559 32.4133 14.4465 29.9038 13.2062L29.8997 13.2041C27.5377 12.0231 25.8496 11.4527 23.5393 11.0196L23.5341 11.0186L21.818 10.6874L21.0169 10.5328L21.0076 9.71696L20.9624 5.77307L20.9207 2.12882L20.6819 1.77508L20.6819 1.77512L20.6751 1.76478C20.2588 1.13131 19.4555 0.840679 18.6862 1.08722Z" fill="#D5BB2F" stroke="black" stroke-width="2"/>
</svg>
